<svg width="186" height="45" viewBox="0 0 186 45" fill="none" xmlns="http://www.w3.org/2000/svg">
<path d="M1.29188 39L0.651875 38.36V28.12L0.971875 27.8H8.07588L8.39587 27.48V27.32L8.07588 27H0.971875L0.651875 26.68V24.12L0.971875 23.8H7.11588L7.43588 23.48V23.32L7.11588 23H0.971875L0.651875 22.68V17.24L1.29188 16.6H9.09988C10.3372 16.6 11.3292 16.92 12.0759 17.56C12.8225 18.2 13.1959 19.0533 13.1959 20.12C13.1959 20.7387 13.0359 21.3147 12.7159 21.848C12.4172 22.36 11.8519 22.744 11.0199 23L10.6999 23.32V23.48L11.0199 23.8C13.0465 24.0133 14.6572 24.792 15.8519 26.136C17.0465 27.4587 17.6439 29.2613 17.6439 31.544C17.6439 32.4187 17.4839 33.2933 17.1639 34.168C16.8652 35.0427 16.4172 35.8533 15.8199 36.6C15.2225 37.3253 14.4865 37.912 13.6119 38.36C12.7585 38.7867 11.7772 39 10.6679 39H1.29188ZM26.1131 39.32C24.5131 39.2987 23.1371 39.0853 21.9851 38.68C20.8545 38.2533 19.9798 37.5387 19.3611 36.536C18.7425 35.512 18.4331 34.0933 18.4331 32.28V17.24L19.0731 16.6H25.3131L25.6331 16.92V22.68L25.9531 23H26.2731L26.5931 22.68V16.92L26.9131 16.6H33.1531L33.7931 17.24V32.28C33.7931 34.0933 33.4838 35.512 32.8651 36.536C32.2465 37.56 31.3611 38.2853 30.2091 38.712C29.0785 39.1173 27.7131 39.32 26.1131 39.32ZM35.3536 39L34.7456 38.36V24.12L35.0656 23.8H41.1456L41.4656 23.48V23.32L41.1456 23H35.0656L34.7456 22.68L34.8736 17.24L35.5136 16.6H41.4656C42.9803 16.6 44.399 16.792 45.7216 17.176C47.0443 17.56 48.1963 18.1893 49.1776 19.064C50.1803 19.9173 50.959 21.0693 51.5136 22.52C52.0683 23.9493 52.3456 25.7093 52.3456 27.8C52.3456 30.5093 51.887 32.6853 50.9696 34.328C50.0736 35.9707 48.8256 37.1653 47.2256 37.912C45.647 38.6373 43.8443 39 41.8176 39H35.3536ZM53.7599 39L53.1519 38.36V24.12L53.4719 23.8H59.5519L59.8719 23.48V23.32L59.5519 23H53.4719L53.1519 22.68L53.2799 17.24L53.9199 16.6H59.8719C61.3865 16.6 62.8052 16.792 64.1279 17.176C65.4505 17.56 66.6025 18.1893 67.5839 19.064C68.5865 19.9173 69.3652 21.0693 69.9199 22.52C70.4745 23.9493 70.7519 25.7093 70.7519 27.8C70.7519 30.5093 70.2932 32.6853 69.3759 34.328C68.4799 35.9707 67.2319 37.1653 65.6319 37.912C64.0532 38.6373 62.2505 39 60.2239 39H53.7599ZM72.1981 39L71.5581 38.36V17.24L72.1981 16.6H78.5981L78.9181 16.92V22.68L79.2381 23H79.5581L79.8781 22.68V16.92L80.1981 16.6H86.5981L87.2381 17.24V38.36L86.5981 39H80.1981L79.8781 38.68V28.12L79.5581 27.8H79.2381L78.9181 28.12V38.68L78.5981 39H72.1981ZM88.8231 39L88.1831 38.36V37.72L95.3831 16.92L95.7031 16.6H96.3431L96.6631 16.92L103.863 37.72V38.36L103.223 39H96.8231L96.5031 38.68V28.12L96.1831 27.8H95.8631L95.5431 28.12V38.68L95.2231 39H88.8231ZM111.854 39L111.214 38.36V28.12L111.534 27.8H118.638L118.958 27.48V27.32L118.638 27H111.534L111.214 26.68V24.12L111.534 23.8H117.678L117.998 23.48V23.32L117.678 23H111.534L111.214 22.68V17.24L111.854 16.6H119.662C120.9 16.6 121.892 16.92 122.638 17.56C123.385 18.2 123.758 19.0533 123.758 20.12C123.758 20.7387 123.598 21.3147 123.278 21.848C122.98 22.36 122.414 22.744 121.582 23L121.262 23.32V23.48L121.582 23.8C123.609 24.0133 125.22 24.792 126.414 26.136C127.609 27.4587 128.206 29.2613 128.206 31.544C128.206 32.4187 128.046 33.2933 127.726 34.168C127.428 35.0427 126.98 35.8533 126.382 36.6C125.785 37.3253 125.049 37.912 124.174 38.36C123.321 38.7867 122.34 39 121.23 39H111.854ZM140.043 39.32C138.443 39.32 136.95 39.0213 135.563 38.424C134.176 37.8267 132.95 37.0053 131.883 35.96C130.838 34.8933 130.016 33.6667 129.419 32.28C128.822 30.8933 128.523 29.4 128.523 27.8C128.523 26.2 128.822 24.7067 129.419 23.32C130.016 21.9333 130.838 20.7173 131.883 19.672C132.95 18.6053 134.176 17.7733 135.563 17.176C136.95 16.5787 138.443 16.28 140.043 16.28C141.643 16.28 143.136 16.5787 144.523 17.176C145.91 17.7733 147.126 18.6053 148.171 19.672C149.238 20.7173 150.07 21.9333 150.667 23.32C151.264 24.7067 151.563 26.2 151.563 27.8C151.563 29.4 151.264 30.8933 150.667 32.28C150.07 33.6667 149.238 34.8933 148.171 35.96C147.126 37.0053 145.91 37.8267 144.523 38.424C143.136 39.0213 141.643 39.32 140.043 39.32ZM157.328 39L157.008 38.68L149.808 17.88V17.24L150.448 16.6H156.848L157.168 16.92V22.68L157.488 23H157.808L158.128 22.68V16.92L158.448 16.6H165.168L165.488 16.92V22.68L165.808 23H166.128L166.448 22.68V16.92L166.768 16.6H173.168L173.808 17.24V17.88L166.608 38.68L166.288 39H165.648L165.328 38.68L162.128 29.432L161.808 29.272L161.488 29.432L158.288 38.68L157.968 39H157.328ZM175.417 39L174.777 38.36V17.24L175.417 16.6H181.497L182.137 17.24V27.48L182.457 27.8H184.697L185.337 28.504V38.36L184.697 39H175.417Z" fill="#F5EFE6"/>
</svg>
